<?xml version="1.0" encoding="UTF-8"?>
<svg version="1.1" xmlns="http://www.w3.org/2000/svg" width="600" height="600">
<path d="M0 0 C198 0 396 0 600 0 C600 198 600 396 600 600 C402 600 204 600 0 600 C0 402 0 204 0 0 Z " fill="#8EDF01" transform="translate(0,0)"/>
<path d="M0 0 C198 0 396 0 600 0 C600 198 600 396 600 600 C402 600 204 600 0 600 C0 402 0 204 0 0 Z M53 67 C50.43420663 70.20599132 48.17956483 73.52219559 46 77 C45.41605469 77.90105469 44.83210938 78.80210938 44.23046875 79.73046875 C29.73348025 103.13410378 29.54327429 128.18398725 29.59316695 154.85273874 C29.59794208 159.16160027 29.58535098 163.47041903 29.57514954 167.77926636 C29.5580421 176.19671711 29.55710446 184.61409295 29.56236244 193.03155655 C29.56641947 199.87786135 29.56494248 206.72414416 29.55961418 213.57044792 C29.55849155 215.03730712 29.55849155 215.03730712 29.55734624 216.53379984 C29.55581462 218.5209698 29.55427627 220.50813975 29.55273127 222.4953097 C29.53903609 241.08663871 29.54442352 259.67792552 29.55591648 278.26925354 C29.56585188 295.24746476 29.55289756 312.22556704 29.52898229 329.20376147 C29.50455571 346.67780647 29.49499178 364.15180081 29.50163502 381.62586254 C29.50511854 391.42001099 29.50295231 401.21407567 29.48538399 411.00821114 C29.47061766 419.3428526 29.47008454 427.67735122 29.4874549 436.01199002 C29.49592976 440.25724421 29.4982011 444.50224372 29.48280334 448.74748421 C29.15566989 472.19280118 29.15566989 472.19280118 34 495 C34.22839825 495.69308828 34.4567965 496.38617657 34.6921159 497.10026753 C39.9221967 512.92621823 47.76917533 525.72765751 59 538 C59.71800781 538.81210937 60.43601562 539.62421875 61.17578125 540.4609375 C76.28681474 556.68182091 100.80088782 568.18054111 123.0176841 569.12880117 C124.62928298 569.13148402 124.62928298 569.13148402 126.27343941 569.13422108 C127.52010734 569.13867892 128.76677527 569.14313676 130.05122101 569.14772969 C131.42681703 569.14764041 132.80241304 569.14745058 134.17800903 569.14717102 C135.64561303 569.15047258 137.11321612 569.15419877 138.58081806 569.1583125 C142.61041449 569.16830805 146.63999604 569.17204537 150.66960311 569.17470181 C155.01757547 569.17861233 159.36553612 569.18819039 163.71350098 569.19691467 C174.21471094 569.21666171 184.71592185 569.22674471 195.21714574 569.23564246 C200.16864828 569.24002971 205.12014976 569.24539552 210.07165146 569.25063133 C226.54401744 569.2676446 243.01638276 569.28213593 259.48875618 569.28938007 C263.76187262 569.29128982 268.03498905 569.29321017 272.30810547 569.29516602 C273.37010634 569.29564976 274.43210721 569.2961335 275.52628992 569.2966319 C292.70692446 569.30492151 309.88748913 569.3302399 327.0680932 569.36274669 C344.72821491 569.39588672 362.38830121 569.41383524 380.04845417 569.41702431 C389.95523019 569.41918338 399.86190445 569.42784291 409.76865005 569.45348549 C418.21107951 569.47528783 426.65338248 569.48319648 435.09583689 569.47351871 C439.39607106 569.46900096 443.69604478 569.47071105 447.99624252 569.49028015 C479.8894076 569.71216093 479.8894076 569.71216093 510 560 C511.0415625 559.49726562 512.083125 558.99453125 513.15625 558.4765625 C539.57033725 545.08084682 556.70009537 522.75038823 566.0390625 495.046875 C569.76397914 483.2361637 570.14973225 471.84144961 570.14717102 459.51733398 C570.15047654 458.06547638 570.15420354 456.61361969 570.1583125 455.16176414 C570.16826197 451.19435171 570.1720378 447.22695439 570.17470181 443.25953126 C570.17862581 438.97165434 570.18820237 434.68378916 570.19691467 430.3959198 C570.21661714 420.05360434 570.22673603 409.71128799 570.23564246 399.36895847 C570.24003438 394.4899292 570.24539872 389.61090099 570.25063133 384.73187256 C570.26763515 368.49953436 570.28212839 352.26719681 570.28938007 336.03485107 C570.29128972 331.82873534 570.2932101 327.62261962 570.29516602 323.41650391 C570.29564976 322.37119349 570.2961335 321.32588308 570.2966319 320.2488966 C570.30492901 303.3225926 570.33026437 286.39635934 570.36274669 269.47008622 C570.39587342 252.06523031 570.41383378 234.66041031 570.41702431 217.25552273 C570.41918389 207.49418684 570.42785175 197.73295421 570.45348549 187.97164917 C570.47526909 179.65771726 570.48320531 171.34391373 570.47351871 163.02995652 C570.4689965 158.79474939 570.47073794 154.55980673 570.49028015 150.32463646 C570.64260861 115.365004 564.71450625 85.43035434 539.625 59.25 C530.17585656 50.21384359 519.65964959 43.7063391 508 38 C506.77603516 37.38318359 506.77603516 37.38318359 505.52734375 36.75390625 C486.86998486 28.29721977 465.66601179 29.41462264 445.6761601 29.47710133 C441.33390714 29.48625362 436.99171537 29.47213243 432.6494751 29.46118164 C424.17044234 29.44349999 415.69155211 29.44718958 407.21251403 29.4588322 C400.3157276 29.46790616 393.4189808 29.4690735 386.52219009 29.46473694 C385.53651758 29.46412401 384.55084507 29.46351107 383.53530369 29.46287957 C381.53227152 29.46160053 379.52923937 29.46030368 377.52620722 29.4589892 C358.79413953 29.44761406 340.06215046 29.46064943 321.33009566 29.48219067 C305.29115078 29.50006443 289.25232171 29.49694927 273.21337891 29.47851562 C254.54022797 29.4570642 235.86714569 29.44870656 217.19398415 29.46096468 C215.19938224 29.46223874 213.20478031 29.46349623 211.21017838 29.46473694 C210.22905947 29.46535404 209.24794057 29.46597114 208.23709079 29.46660694 C201.35536901 29.47004663 194.47369114 29.46426157 187.59197617 29.45481873 C179.19592054 29.44354998 170.80001431 29.44674082 162.40397559 29.4679417 C158.12821052 29.47838608 153.8526937 29.48268822 149.576931 29.46934509 C110.9275665 29.35891802 80.07596333 37.2539879 53 67 Z " fill="#FEFEFE" transform="translate(0,0)"/>
<path d="M0 0 C0.33 0 0.66 0 1 0 C1.09301879 13.18768118 1.16392625 26.37528324 1.20724869 39.5632267 C1.22804994 45.68810305 1.25623058 51.81275357 1.30175781 57.9375 C1.34548245 63.85734629 1.36919311 69.77697648 1.37950897 75.69697189 C1.38685278 77.94621554 1.40119243 80.19544847 1.42292023 82.44459915 C1.53621332 94.66738692 1.38960768 105.44000759 -3 117 C-3.24451401 117.73046036 -3.48902802 118.46092072 -3.74095154 119.21351624 C-12.3544137 144.65743232 -30.46802332 164.7475921 -54.2109375 177.12011719 C-58.99184452 179.47142572 -63.97309483 181.25787149 -69 183 C-69.78890625 183.29648437 -70.5778125 183.59296875 -71.390625 183.8984375 C-82.29383628 187.85967613 -93.4216079 188.29540138 -104.91299438 188.26742554 C-106.38720346 188.27116981 -107.86141055 188.27577441 -109.33561456 188.28115618 C-113.35553788 188.29330567 -117.37537748 188.2931353 -121.39531493 188.29076743 C-125.74315002 188.29035721 -130.090959 188.30141792 -134.43878174 188.31088257 C-142.94560683 188.32744943 -151.4524042 188.33299016 -159.95924409 188.33410732 C-166.87909737 188.33505988 -173.79894156 188.3391805 -180.71879196 188.34550858 C-200.36755203 188.36310945 -220.01629032 188.37234929 -239.66505833 188.37084763 C-240.72288889 188.37076772 -241.78071944 188.3706878 -242.87060547 188.37060547 C-244.45930419 188.37048283 -244.45930419 188.37048283 -246.08009784 188.37035771 C-263.23584027 188.3695452 -280.39149482 188.38867694 -297.54721184 188.4168822 C-315.19169853 188.44566054 -332.83614243 188.45941977 -350.48065317 188.45769465 C-360.37497381 188.45703244 -370.26920233 188.46245024 -380.16350174 188.48405075 C-388.58901496 188.50232783 -397.01439429 188.50655659 -405.43991883 188.4930319 C-409.73184065 188.48653495 -414.0235061 188.48626539 -418.31540298 188.5037384 C-450.79764094 188.62760075 -481.09125074 184.49115228 -505.29296875 160.7421875 C-506.18628906 159.83726562 -507.07960938 158.93234375 -508 158 C-508.80050781 157.19820312 -509.60101563 156.39640625 -510.42578125 155.5703125 C-520.24672946 145.22354496 -527.02159079 133.31958938 -532 120 C-532.44389572 118.81676651 -532.88779144 117.63353302 -533.34513855 116.41444397 C-537.6210731 104.05266587 -537.6492439 92.21156071 -537.48828125 79.24609375 C-537.47893214 77.00595395 -537.47182598 74.76580379 -537.46684265 72.52565002 C-537.44793797 66.68778232 -537.3989831 60.85055693 -537.34332275 55.01293945 C-537.29176985 49.03280317 -537.26925232 43.05256104 -537.24414062 37.07226562 C-537.19084557 25.38123137 -537.10573781 13.69066952 -537 2 C-534.82358574 4.82822988 -533.01135989 7.68602677 -531.29907227 10.82128906 C-527.4790365 17.80530891 -523.22929784 23.97080956 -518 30 C-517.00419922 31.21236328 -517.00419922 31.21236328 -515.98828125 32.44921875 C-496.73167828 55.1228899 -466.86823226 69.42862336 -437.40917969 71.859375 C-432.21323406 72.16266489 -427.01618367 72.21908921 -421.8125 72.25 C-420.73186279 72.2593457 -419.65122559 72.26869141 -418.5378418 72.27832031 C-385.54608223 72.14766983 -354.72238484 57.43143092 -331.49609375 34.53125 C-326.73248822 29.42797869 -322.71567501 23.95428485 -318.91699219 18.11376953 C-317.99157228 16.71042729 -317.00113607 15.35036959 -316 14 C-315.34 14 -314.68 14 -314 14 C-313.94392578 15.10794922 -313.94392578 15.10794922 -313.88671875 16.23828125 C-312.92417542 31.09164592 -308.72321892 43.18760176 -297.5625 53.5 C-285.73103616 62.63499068 -273.39158209 63.91492324 -259 63 C-248.5797529 61.64897952 -239.23987695 55.08466144 -232.5625 47.1875 C-225.0145723 36.85216331 -222.78850468 26.40320725 -221 14 C-220.34 14 -219.68 14 -219 14 C-217.79193831 15.70763608 -216.66043795 17.46956008 -215.5625 19.25 C-198.24434565 45.83790785 -170.66231392 63.18468491 -140 70 C-139.17580566 70.18691406 -138.35161133 70.37382812 -137.50244141 70.56640625 C-130.0203651 72.10735605 -122.74677028 72.29976129 -115.125 72.25 C-113.94808594 72.25773437 -112.77117187 72.26546875 -111.55859375 72.2734375 C-78.42060673 72.20052664 -47.74282098 58.836074 -24 36 C-13.73607989 25.58685728 -6.19259067 13.19291056 0 0 Z " fill="#50C800" transform="translate(568,381)"/>
<path d="M0 0 C1.47192064 -0.00374322 2.9438393 -0.0083474 4.41575485 -0.01373065 C8.43407627 -0.02589367 12.45231401 -0.02570812 16.4706496 -0.02334189 C20.81513221 -0.02293201 25.1595886 -0.03398937 29.50405884 -0.04345703 C38.00701314 -0.06003249 46.5099397 -0.06556506 55.01290881 -0.06668179 C61.93086189 -0.06763415 68.84880586 -0.07175381 75.76675606 -0.07808304 C95.41129296 -0.09568801 115.05580805 -0.10492337 134.7003529 -0.10342209 C136.28715867 -0.10330222 136.28715867 -0.10330222 137.90602112 -0.10317993 C138.96519448 -0.10309817 140.02436784 -0.10301641 141.11563737 -0.10293217 C158.26362577 -0.10212005 175.41152616 -0.12124095 192.55948912 -0.14945666 C210.19717374 -0.17824738 227.83481553 -0.19199348 245.47252423 -0.19026911 C255.36245222 -0.18960722 265.25228802 -0.19501069 275.14219475 -0.21662521 C283.56621112 -0.23491889 291.99009353 -0.2391178 300.41412126 -0.22560637 C304.70425871 -0.21911703 308.99413979 -0.21881149 313.28425217 -0.23631287 C356.04695895 -0.39979116 356.04695895 -0.39979116 375.22071838 9.26742554 C376.30868713 9.8049646 377.39665588 10.34250366 378.51759338 10.89633179 C385.33902421 14.40921149 391.40744622 18.26676131 397.22071838 23.26742554 C398.04314026 23.96867554 398.86556213 24.66992554 399.71290588 25.39242554 C416.99560206 40.52135106 427.72729251 58.95566508 433.22071838 81.26742554 C433.39908737 81.94951584 433.57745636 82.63160614 433.76123047 83.33436584 C434.43787563 87.65361034 434.3508487 91.9249197 434.33424377 96.29013062 C434.3343898 97.29547852 434.33453583 98.30082642 434.33468628 99.3366394 C434.33399066 102.65343396 434.32621463 105.97017207 434.31837463 109.28695679 C434.31650921 111.58909576 434.31508589 113.89123512 434.31408691 116.19337463 C434.31027154 122.24813943 434.30044959 128.30288019 434.28938293 134.3576355 C434.27914777 140.53784866 434.27458478 146.71806571 434.26954651 152.89828491 C434.25882646 165.02134234 434.24176177 177.14438194 434.22071838 189.26742554 C431.98401753 186.34873321 430.21548623 183.47787645 428.53321838 180.20492554 C424.80763484 173.3043373 420.63680741 166.31712015 414.74415588 161.05648804 C410.60441133 157.31100487 408.10174661 154.39370752 407.57228088 148.75570679 C407.40703311 145.2962732 407.39190424 141.83965099 407.36524963 138.37680054 C407.19858242 125.07327434 402.35265404 109.22361279 393.09571838 99.39242554 C388.19367524 95.79092445 381.96244389 96.42065101 376.22071838 97.26742554 C370.58497838 99.77219887 367.12696036 104.63023687 363.22071838 109.26742554 C361.60340605 111.10754427 359.97827844 112.9408211 358.34571838 114.76742554 C357.20489807 116.05133179 357.20489807 116.05133179 356.04103088 117.36117554 C355.44032776 117.99023804 354.83962463 118.61930054 354.22071838 119.26742554 C353.89071838 119.26742554 353.56071838 119.26742554 353.22071838 119.26742554 C353.18107971 118.5583606 353.14144104 117.84929565 353.1006012 117.1187439 C351.92326838 88.74590625 351.92326838 88.74590625 339.22071838 63.99789429 C336.08795891 61.2873231 333.04883123 60.99397633 329.03321838 60.76742554 C328.1321637 60.69523804 327.23110901 60.62305054 326.30274963 60.54867554 C316.68660292 62.79122433 307.5313377 75.81236735 300.68556213 82.66976929 C299.27901534 84.0756412 297.87232024 85.48136474 296.46548462 86.88694763 C293.52802074 89.82294322 290.59235757 92.76072423 287.65797424 95.69979858 C283.91369779 99.44977177 280.16494904 103.19523684 276.41483212 106.93936825 C273.51238398 109.83818726 270.61234103 112.73940309 267.71299934 115.64132881 C266.33235943 117.02263149 264.95098826 118.40320369 263.56884575 119.78300285 C254.29651147 128.98225235 254.29651147 128.98225235 245.56340027 138.68739319 C229.73173013 157.31768175 210.07885083 170.3726984 186.22071838 176.26742554 C184.90394104 176.60387085 184.90394104 176.60387085 183.56056213 176.94711304 C160.28080503 181.83753683 134.25890547 178.15087864 114.12867737 165.29232788 C104.6441967 158.91621781 96.74209906 151.29637154 88.78321838 143.14242554 C87.55819639 141.90586666 86.33228724 140.67018601 85.10548401 139.43539429 C83.91524601 138.23174282 82.72576523 137.02734201 81.53712463 135.82211304 C81.00470657 135.28230804 80.47228851 134.74250305 79.92373657 134.18634033 C77.23480298 131.4303734 74.65232423 128.62421225 72.15284729 125.69515991 C66.74117281 119.46155469 60.82253532 113.70472764 54.99024963 107.86898804 C53.70939064 106.58491052 52.42860474 105.30076011 51.14788818 104.01654053 C48.47772475 101.34042175 45.80553566 98.66634472 43.13209534 95.99349976 C39.70730983 92.56881644 36.28949004 89.13726975 32.87334156 85.70397377 C30.23708044 83.05660571 27.59629865 80.41378335 24.9542141 77.77222824 C23.69152356 76.5083585 22.43045229 75.24286881 21.1710453 73.97572708 C19.41472225 72.20961738 17.65218985 70.44994313 15.88795471 68.69174194 C15.3709903 68.16915802 14.85402588 67.6465741 14.32139587 67.1081543 C9.96714811 62.79168831 6.98095162 60.97600252 0.84571838 60.82992554 C-3.42631889 60.93786265 -6.39357552 61.3161344 -9.51756287 64.55648804 C-18.7980816 77.14121623 -21.67891906 94.40745345 -22.34178162 109.64242554 C-22.40655701 111.03267944 -22.40655701 111.03267944 -22.47264099 112.45101929 C-22.57804348 114.72302848 -22.68016767 116.99513479 -22.77928162 119.26742554 C-26.57477413 116.10495517 -30.2306643 113.01170296 -33.40428162 109.20492554 C-39.90627977 100.95222422 -39.90627977 100.95222422 -49.14256287 97.01742554 C-54.53318389 96.88964785 -59.12985081 96.81965745 -63.26756287 100.64242554 C-71.84293482 109.83488381 -76.84187334 125.20113149 -76.81443787 137.63070679 C-76.81312932 150.6285075 -76.81312932 150.6285075 -79.27146912 154.79867554 C-81.21678162 156.57992554 -81.21678162 156.57992554 -83.39646912 158.27523804 C-86.44774421 160.8263041 -88.56216884 163.71680458 -90.84178162 166.95492554 C-91.47177063 167.84522461 -91.47177063 167.84522461 -92.11448669 168.75350952 C-96.1934175 174.65323567 -99.56527615 180.8606994 -102.77928162 187.26742554 C-103.10928162 187.26742554 -103.43928162 187.26742554 -103.77928162 187.26742554 C-103.87239178 174.24467051 -103.94325356 161.22199604 -103.9865303 148.19897461 C-104.00731194 142.15038201 -104.03545576 136.10201891 -104.08103943 130.05355835 C-104.12483527 124.205025 -104.14848939 118.35671094 -104.15879059 112.50802612 C-104.16612183 110.28834588 -104.18043606 108.06867621 -104.20220184 105.84909058 C-104.49098071 75.15044867 -95.05865167 51.13624918 -73.59178162 28.70492554 C-53.47269426 9.08328815 -27.79712493 -0.06758998 0 0 Z " fill="#50C800" transform="translate(134.77928161621094,29.732574462890625)"/>
<path d="M0 0 C0.9175708 0.00604248 1.8351416 0.01208496 2.78051758 0.01831055 C9.55285454 0.11706756 16.02439269 0.65569947 22.625 2.25 C23.42164063 2.42144531 24.21828125 2.59289062 25.0390625 2.76953125 C37.28023675 5.85972996 48.23798935 13.03028602 57.625 21.25 C58.76001953 22.15298828 58.76001953 22.15298828 59.91796875 23.07421875 C75.03717735 35.48706299 84.72175452 56.03906052 86.85703087 75.34824181 C87.19584398 80.33754302 87.1620455 85.3261861 87.12109375 90.32421875 C87.12124939 91.90688646 87.12274898 93.48955453 87.12550354 95.07221985 C87.12687395 98.35895018 87.11455705 101.64523691 87.09155273 104.93188477 C87.06310119 109.10722602 87.06594297 113.28183652 87.07864285 117.45723248 C87.08565327 120.71499182 87.07775131 123.97258731 87.06538582 127.2303257 C87.06092817 128.76862773 87.06048361 130.30694771 87.06445122 131.84525108 C87.0960504 154.85288875 79.92594611 175.85613335 64.625 193.25 C63.62533203 194.39275391 63.62533203 194.39275391 62.60546875 195.55859375 C49.39664768 209.69864896 28.04082282 220.12395052 8.625 221.25 C7.71621094 221.30285156 6.80742187 221.35570312 5.87109375 221.41015625 C-18.05392232 222.09886134 -39.54585457 213.96644927 -57.03515625 197.5546875 C-74.70184444 180.15344204 -83.53190338 159.35274207 -83.78540993 134.66669083 C-83.79196884 132.41828092 -83.78365716 130.17026666 -83.7734375 127.921875 C-83.77546685 126.31439076 -83.77838536 124.70690742 -83.78213501 123.09942627 C-83.78651293 119.76150584 -83.78027259 116.42382919 -83.76611328 113.0859375 C-83.74896789 108.84102503 -83.75892515 104.59667967 -83.77683067 100.35178757 C-83.78774481 97.04347568 -83.78418843 93.73529522 -83.7764473 90.42697906 C-83.77446919 88.86272359 -83.77681881 87.29845554 -83.78388596 85.73421478 C-83.86801245 61.90838193 -75.08552659 41.07901913 -58.37890625 24.06640625 C-42.76181837 8.98801725 -21.75073168 -0.23149784 0 0 Z " fill="#FDFEFD" transform="translate(447.375,189.75)"/>
<path d="M0 0 C2.21175571 1.6616621 4.30722884 3.40535862 6.40234375 5.2109375 C7.12550781 5.77941406 7.84867188 6.34789062 8.59375 6.93359375 C23.69771203 19.30570874 33.71762771 39.02999197 36.40234375 58.2109375 C36.70850271 63.58714132 36.73299558 68.95693972 36.73828125 74.33984375 C36.74472769 75.89908463 36.75145733 77.45832436 36.75845337 79.01756287 C36.77037091 82.27614131 36.77414019 85.53461422 36.77294922 88.79321289 C36.77274695 92.9190695 36.79997841 97.04423024 36.83449364 101.16992283 C36.85700707 104.39008028 36.86077931 107.61007711 36.85972977 110.8303051 C36.86205193 112.34858521 36.87067806 113.86687217 36.8863945 115.38507271 C37.11832375 140.11303 29.07225982 163.31517283 11.5703125 181.16796875 C-7.62580486 199.98826735 -30.18476392 205.67808711 -56.203125 205.42578125 C-63.06456474 205.26602828 -69.08991848 204.5110862 -75.59765625 202.2109375 C-76.55671875 201.89382813 -77.51578125 201.57671875 -78.50390625 201.25 C-100.76154119 192.99124598 -117.04186559 175.64037213 -127.09375 154.54296875 C-128.91926436 150.49838759 -130.44892422 146.49459628 -131.59765625 142.2109375 C-131.93415192 141.0036499 -132.27064758 139.7963623 -132.61734009 138.55249023 C-133.62515187 134.49378926 -133.86363094 130.68110939 -133.88818359 126.48828125 C-133.89490082 125.76178879 -133.90161804 125.03529633 -133.90853882 124.28678894 C-133.92738664 121.90726693 -133.93143725 119.52802933 -133.93359375 117.1484375 C-133.94003434 115.47184134 -133.9467636 113.79524626 -133.95376587 112.11865234 C-133.96570827 108.60853477 -133.96945019 105.09851534 -133.96826172 101.58837891 C-133.96805951 97.13505427 -133.99527301 92.68237482 -134.02980614 88.22920227 C-134.05227841 84.76459995 -134.056093 81.30014741 -134.05504227 77.83547974 C-134.05737122 76.19635817 -134.06603803 74.5572307 -134.081707 72.91818237 C-134.20186828 59.04219065 -132.64001783 45.48457826 -125.97265625 33.0234375 C-125.63564697 32.3725415 -125.2986377 31.72164551 -124.95141602 31.05102539 C-121.25792867 24.1742194 -116.65578406 18.13162684 -111.59765625 12.2109375 C-111.0253125 11.53675781 -110.45296875 10.86257812 -109.86328125 10.16796875 C-81.77781462 -20.21160777 -33.1486698 -22.83021168 0 0 Z " fill="#FDFEFD" transform="translate(198.59765625,204.7890625)"/>
<path d="M0 0 C12.1893442 9.69312211 20.31247957 21.33299352 23.625 36.6875 C23.68488098 38.68660337 23.70278541 40.68901322 23.625 42.6875 C21.93912229 43.02894359 20.25118407 43.36021803 18.5625 43.6875 C17.62277344 43.873125 16.68304688 44.05875 15.71484375 44.25 C12.31689585 44.73112537 9.05241764 44.75596277 5.625 44.6875 C5.68300781 45.54730469 5.74101562 46.40710938 5.80078125 47.29296875 C6.2336807 58.63493439 3.77741565 68.64179785 -3.375 77.6875 C-3.84292969 78.30882812 -4.31085938 78.93015625 -4.79296875 79.5703125 C-11.41230156 87.8405478 -20.77629909 94.15597417 -31.375 95.6875 C-42.59907939 96.71476204 -52.38138728 96.43496467 -62.375 90.6875 C-63.19355469 90.22988281 -64.01210938 89.77226562 -64.85546875 89.30078125 C-75.46964095 82.81137949 -82.83353478 72.66809155 -85.81640625 60.65234375 C-86.75351608 55.6784531 -87.07791639 50.73792145 -87.375 45.6875 C-92.985 44.6975 -98.595 43.7075 -104.375 42.6875 C-104.375 28.56795534 -98.16699658 16.6764526 -88.375 6.6875 C-81.59320885 0.38906252 -73.97396536 -4.83857083 -65.375 -8.3125 C-64.48425781 -8.70308594 -63.59351563 -9.09367187 -62.67578125 -9.49609375 C-42.21553362 -17.22552063 -17.42343494 -12.59950036 0 0 Z " fill="#FEC100" transform="translate(340.375,349.3125)"/>
<path d="M0 0 C8.71767815 6.07698341 14.53820774 13.62543639 17.76171875 23.71484375 C18.25671875 25.19984375 18.25671875 25.19984375 18.76171875 26.71484375 C18.88508064 28.61832626 18.95150724 30.52570341 18.98632812 32.43286133 C19.02010559 34.19663872 19.02010559 34.19663872 19.05456543 35.99604797 C19.12588264 41.40869471 19.1833379 46.82117083 19.22167969 52.23413086 C19.24381547 55.07720541 19.28537003 57.91893813 19.34472656 60.76147461 C19.96041315 90.94722511 19.96041315 90.94722511 11.76171875 101.71484375 C11.2423877 102.45226807 10.72305664 103.18969238 10.18798828 103.94946289 C4.00829962 112.33320186 -6.21037189 117.00571289 -16.23828125 118.71484375 C-27.94584366 119.65001003 -37.82513198 116.79008666 -47.23828125 109.71484375 C-52.5257666 104.79201256 -56.60315331 99.45920584 -59.23828125 92.71484375 C-59.75165039 91.4764978 -59.75165039 91.4764978 -60.27539062 90.21313477 C-61.53314125 85.64358387 -61.4871031 81.43779604 -61.43359375 76.72265625 C-61.43076385 75.776716 -61.42793396 74.83077576 -61.42501831 73.85617065 C-61.41387057 70.85059681 -61.3887759 67.84532673 -61.36328125 64.83984375 C-61.35324446 62.79557724 -61.34411984 60.75130603 -61.3359375 58.70703125 C-61.31394892 53.70951931 -61.27945634 48.71223295 -61.23828125 43.71484375 C-60.42931396 43.52946045 -59.62034668 43.34407715 -58.78686523 43.15307617 C-57.18307007 42.77179565 -57.18307007 42.77179565 -55.546875 42.3828125 C-54.49040771 42.1355542 -53.43394043 41.8882959 -52.34545898 41.63354492 C-44.91321711 39.43604935 -39.95895243 35.29433767 -36.11328125 28.64453125 C-33.67454972 23.26625725 -33.52664667 17.51504821 -34.23828125 11.71484375 C-35.30668004 8.9146361 -36.56445954 6.41021176 -38.046875 3.80859375 C-39.23828125 1.71484375 -39.23828125 1.71484375 -40.23828125 -1.28515625 C-27.06535419 -7.41974183 -12.7244551 -7.30601348 0 0 Z " fill="#4B4B4B" transform="translate(457.23828125,244.28515625)"/>
<path d="M0 0 C8.42686489 4.41946826 14.71876959 11.33630256 19.1953125 19.67578125 C19.70433105 20.59222412 20.21334961 21.50866699 20.73779297 22.45288086 C23.1574339 28.19771322 22.72390683 34.44717362 22.76953125 40.578125 C22.78428936 41.94226712 22.79916898 43.30640794 22.81416321 44.67054749 C22.84107433 47.52756444 22.85468007 50.38432327 22.86108398 53.24145508 C22.86974296 56.14083702 22.90429172 59.03798507 22.96362305 61.93676758 C23.62999132 95.09189971 23.62999132 95.09189971 11.85424805 108.30200195 C3.20276821 116.8084005 -6.73349779 120.57293366 -18.6796875 121.05078125 C-29.42886564 120.8322465 -39.05119334 116.16723509 -46.77734375 108.79296875 C-55.19051697 99.68316336 -58.14273041 90.00799853 -58 77.8046875 C-57.9971701 76.88235825 -57.99434021 75.96002899 -57.99142456 75.00975037 C-57.98029724 72.08579112 -57.95520662 69.16214674 -57.9296875 66.23828125 C-57.91964807 64.24674924 -57.9105239 62.25521239 -57.90234375 60.26367188 C-57.88038233 55.40092175 -57.84590423 50.53840475 -57.8046875 45.67578125 C-57.08385986 45.63332275 -56.36303223 45.59086426 -55.62036133 45.54711914 C-46.89456279 44.91629459 -39.1206914 43.10031136 -32.78515625 36.60546875 C-31.32514234 34.68009761 -30.03580155 32.75273265 -28.8046875 30.67578125 C-28.1446875 29.68578125 -27.4846875 28.69578125 -26.8046875 27.67578125 C-25.65644765 18.38108179 -26.92545985 11.57125873 -31.8046875 3.67578125 C-32.48409092 2.3488927 -33.15507424 1.01750583 -33.8046875 -0.32421875 C-22.87416036 -5.6272874 -11.07849535 -4.47934607 0 0 Z " fill="#4B4B4B" transform="translate(180.8046875,242.32421875)"/>
<path d="M0 0 C3.97968471 0.60078506 7.95872482 1.20572107 11.9375 1.8125 C13.11997314 1.99264648 14.30244629 2.17279297 15.52075195 2.35839844 C23.54782331 3.59257636 31.53638179 4.95284962 39.51171875 6.484375 C47.62671449 7.68390405 54.80023927 6.2366827 62.75 4.625 C64.99468945 4.17917253 67.23948027 3.73385516 69.484375 3.2890625 C70.57427734 3.07282227 71.66417969 2.85658203 72.78710938 2.63378906 C75.86201156 2.02722021 78.93662623 1.42138093 82.015625 0.8359375 C83.28067871 0.59302979 83.28067871 0.59302979 84.57128906 0.34521484 C87.08012555 -0.01138897 89.46944774 -0.06041256 92 0 C92.87464644 11.87575504 90.51728819 22.4928414 83 32 C82.53207031 32.62132812 82.06414062 33.24265625 81.58203125 33.8828125 C74.96269844 42.1530478 65.59870091 48.46847417 55 50 C43.77592061 51.02726204 33.99361272 50.74746467 24 45 C23.18144531 44.54238281 22.36289062 44.08476562 21.51953125 43.61328125 C11.04947591 37.21199113 3.43418999 27.02144326 0.54589844 15.10229492 C-0.02168648 11.87675756 -0.11726494 8.91213576 -0.07421875 5.640625 C-0.06350342 4.57875977 -0.05278809 3.51689453 -0.04174805 2.42285156 C-0.02797119 1.62331055 -0.01419434 0.82376953 0 0 Z " fill="#F28000" transform="translate(254,395)"/>
<path d="M0 0 C0.78181641 -0.01611328 1.56363281 -0.03222656 2.36914062 -0.04882812 C9.08909336 -0.05444212 13.8019317 1.24500747 19 5.75 C22.00549919 9.27072762 23.0479061 11.05615487 23.5625 15.6875 C23.11810645 19.98330432 21.89158706 21.99033589 19.1875 25.3125 C14.42255892 28.48912739 8.98994627 27.68440996 3.41845703 27.68310547 C1.32631562 27.68747117 -0.76370161 27.72377621 -2.85546875 27.76171875 C-4.19270115 27.76758899 -5.52994353 27.771557 -6.8671875 27.7734375 C-8.07874512 27.78165527 -9.29030273 27.78987305 -10.53857422 27.79833984 C-14.41622296 27.22290949 -16.03033589 26.01244512 -18.8125 23.3125 C-21.34261146 19.81853655 -21.24080771 16.52419251 -20.8125 12.3125 C-19.11174567 8.04308062 -16.80775006 4.68467972 -12.8125 2.3125 C-12.29300781 1.96445312 -11.77351563 1.61640625 -11.23828125 1.2578125 C-7.53329861 -0.18599716 -3.94081261 -0.01600655 0 0 Z " fill="#FFE544" transform="translate(298.8125,345.6875)"/>
<path d="M0 0 C0.66 0 1.32 0 2 0 C2 2.31 2 4.62 2 7 C1.34 6.01 0.68 5.02 0 4 C-0.99 4.66 -1.98 5.32 -3 6 C-1.125 1.125 -1.125 1.125 0 0 Z " fill="#65C100" transform="translate(252,395)"/>
</svg>
