<?xml version="1.0" encoding="UTF-8"?>
<svg version="1.1" xmlns="http://www.w3.org/2000/svg" width="195" height="195">
<path d="M0 0 C64.35 0 128.7 0 195 0 C195 64.35 195 128.7 195 195 C130.65 195 66.3 195 0 195 C0 130.65 0 66.3 0 0 Z " fill="#FEFEFE" transform="translate(0,0)"/>
<path d="M0 0 C2.5 1 2.5 1 4 2 C4 1.34 4 0.68 4 0 C6.31 0 8.62 0 11 0 C11.07462728 4.28666736 11.12882508 8.57298207 11.16479492 12.86010742 C11.17980313 14.31590368 11.20021633 15.77165532 11.22631836 17.22729492 C11.26305676 19.33002789 11.2798056 21.43215885 11.29296875 23.53515625 C11.3086792 24.797229 11.32438965 26.05930176 11.34057617 27.35961914 C10.82143954 32.90861294 9.14997193 36.68173949 5.4375 40.9375 C1.97494049 43.54521315 -1.36594412 43.65096017 -5.59765625 43.421875 C-9.19118918 42.79081556 -11.31106651 41.42659852 -14 39 C-15.875 36.25 -15.875 36.25 -17 34 C-15.02 33.34 -13.04 32.68 -11 32 C-10.484375 32.66 -9.96875 33.32 -9.4375 34 C-7.05912084 36.31540104 -7.05912084 36.31540104 -3.4375 36.4375 C-0.11669761 36.25398163 -0.11669761 36.25398163 1.9375 34.8125 C3.32851983 32.43958382 3.21917317 30.70313576 3 28 C2.01 28.66 1.02 29.32 0 30 C-5.45900287 30.7492749 -8.85249152 29.591595 -13.265625 26.546875 C-17.08670656 23.13888334 -18.12691973 18.86913817 -18.4375 13.9375 C-17.79127929 8.12151363 -15.60751343 5.38830705 -11.25 1.625 C-7.00361725 -0.49819138 -4.71250609 -0.45604898 0 0 Z " fill="#5D83C2" transform="translate(137,84)"/>
<path d="M0 0 C2.9559532 1.01182852 4.54350605 2.03480484 7 4 C6.49396008 6.16874252 6.00016187 7.99967627 5 10 C2.85316461 9.53996384 1.09364434 9.05180325 -0.8359375 7.984375 C-4.75152647 6.20327677 -8.79411736 6.46760979 -13 7 C-17.84115976 9.33092877 -20.70301121 12.14098526 -23 17 C-23.77379561 22.29813119 -23.67768515 26.56643525 -21.375 31.4375 C-17.28124389 35.85444738 -14.15968857 38.22243451 -8.0625 38.5 C-2.93052259 38.26040467 -0.03128852 37.20857658 4 34 C5.39198649 31.67836539 6.14991018 29.60027474 7 27 C2.05 27 -2.9 27 -8 27 C-8 24.69 -8 22.38 -8 20 C-4.52085059 19.97112186 -1.04173169 19.95324313 2.4375 19.9375 C3.92733398 19.92493164 3.92733398 19.92493164 5.44726562 19.91210938 C6.86362305 19.90727539 6.86362305 19.90727539 8.30859375 19.90234375 C9.62041626 19.89448853 9.62041626 19.89448853 10.95874023 19.88647461 C13 20 13 20 14 21 C14.86428956 27.47508738 13.81569625 32.68488059 10 38 C4.88766814 43.58271591 -0.17838296 45.97682439 -7.75 46.4375 C-14.42096378 46.27675388 -19.92093699 43.73553119 -24.890625 39.3203125 C-30.51519883 33.1769673 -31.49289606 27.14489034 -31.30078125 18.96484375 C-30.73032257 13.34175102 -28.97527584 9.80336018 -24.80078125 5.9921875 C-16.65869398 -0.48477081 -10.1501592 -0.77153234 0 0 Z " fill="#5D83C2" transform="translate(38,68)"/>
<path d="M0 0 C4.34468141 2.1723407 7.60032162 4.75441518 10 9 C10.87572913 14.87427291 10.52568339 20.06404325 7 25 C1.69830955 29.08671973 -2.29505232 30.56821591 -9 30 C-14.27838327 27.2055618 -18.08864461 23.73406618 -20 18 C-20.6564428 12.42023619 -19.53148866 9.21388374 -16.40625 4.734375 C-12.01511983 -0.6813522 -6.57593114 -0.949974 0 0 Z " fill="#EB4B3D" transform="translate(74,84)"/>
<path d="M0 0 C3.46122752 1.97201568 5.36349867 3.42324609 6.6875 7.3125 C7.20449937 12.20922264 7.36186368 16.64433722 5.5 21.25 C1.61405578 25.67193652 -1.66657671 28.11280768 -7.625 28.5625 C-12.97680237 28.19966594 -16.03199363 26.73143949 -19.625 22.75 C-23.03246874 17.82810071 -23.3005399 13.19331348 -22.3125 7.3125 C-17.20557119 -1.34052683 -9.28444873 -4.24823484 0 0 Z " fill="#FBBE1A" transform="translate(109.3125,85.6875)"/>
<path d="M0 0 C3.94074793 2.04952218 6.26526352 4.21309535 8.03515625 8.2734375 C8.03515625 9.2634375 8.03515625 10.2534375 8.03515625 11.2734375 C-0.87484375 14.7384375 -0.87484375 14.7384375 -9.96484375 18.2734375 C-9.63484375 19.2634375 -9.30484375 20.2534375 -8.96484375 21.2734375 C-5.65299668 22.04475656 -5.65299668 22.04475656 -1.96484375 22.2734375 C-0.62209206 21.28612008 0.71247898 20.28749007 2.03515625 19.2734375 C4.78515625 20.0859375 4.78515625 20.0859375 7.03515625 21.2734375 C7.03515625 22.2634375 7.03515625 23.2534375 7.03515625 24.2734375 C3.60607984 27.43531315 0.00166033 29.14012659 -4.58984375 29.7734375 C-9.67186426 29.02054557 -12.77798891 27.55652382 -16.27734375 23.7734375 C-19.55936746 18.91118015 -19.60302813 13.96391486 -18.96484375 8.2734375 C-15.1368307 0.47563314 -8.44277615 -3.12198084 0 0 Z " fill="#EB4C3E" transform="translate(179.96484375,84.7265625)"/>
<path d="M0 0 C1.98 0 3.96 0 6 0 C6 14.52 6 29.04 6 44 C4.02 44 2.04 44 0 44 C0 29.48 0 14.96 0 0 Z " fill="#34AA55" transform="translate(152,69)"/>
<path d="M0 0 C3.5 0.75 3.5 0.75 6.4375 3.375 C8.68591175 7.05421923 9.30478766 8.54722002 8.5 12.75 C6.42170296 16.49093467 5.17458281 17.54149259 1.0625 18.8125 C-2.5 18.75 -2.5 18.75 -5.375 17.3125 C-7.80328296 14.38427643 -8.51905268 12.53899609 -8.7578125 8.7890625 C-8.10743895 3.64519896 -5.00284547 1.07203832 0 0 Z " fill="#FEFBF5" transform="translate(101.5,89.25)"/>
<path d="M0 0 C3.80470451 0.7133821 5.41196019 1.67868421 8 4.5625 C9.14888518 8.51179279 9.43129396 10.59208859 7.75 14.375 C6 16.5625 6 16.5625 3 18.5625 C-1.14394921 18.48715547 -3.281508 18.18887764 -6.4375 15.4375 C-8.43514338 11.76183618 -8.66350721 9.69098931 -8 5.5625 C-5.54999553 2.17572911 -4.13607554 0.77551416 0 0 Z " fill="#FDF7F6" transform="translate(69,89.4375)"/>
<path d="M0 0 C3.55484581 0.68071515 4.714546 1.76322459 6.9375 4.5625 C8.36412219 7.41574437 8.24783868 9.39704549 7.9375 12.5625 C5.86305322 16.29650421 4.58078346 17.35197087 0.5 18.6875 C-3.0625 18.5625 -3.0625 18.5625 -6 16.625 C-8.27110122 13.2527588 -8.81809772 11.47793322 -8.546875 7.5 C-7.39220145 2.88130581 -4.49407543 0.82544243 0 0 Z " fill="#F7F9FC" transform="translate(134.0625,89.4375)"/>
<path d="M0 0 C0.66 0.99 1.32 1.98 2 3 C0.21046815 3.83790789 -1.58169695 4.67019396 -3.375 5.5 C-4.87160156 6.19609375 -4.87160156 6.19609375 -6.3984375 6.90625 C-9 8 -9 8 -11 8 C-10.67842796 5.02545866 -10.37860258 3.40664722 -8.3125 1.1875 C-5.32128571 -0.34852896 -3.31736198 -0.43269939 0 0 Z " fill="#FDF1F0" transform="translate(178,90)"/>
</svg>
