<?xml version="1.0" encoding="UTF-8"?>
<svg version="1.1" xmlns="http://www.w3.org/2000/svg" width="2048" height="2048">
<path d="M0 0 C675.84 0 1351.68 0 2048 0 C2048 675.84 2048 1351.68 2048 2048 C1372.16 2048 696.32 2048 0 2048 C0 1372.16 0 696.32 0 0 Z " fill="#F2F2F2" transform="translate(0,0)"/>
<path d="M0 0 C293.7 0 587.4 0 890 0 C890 293.7 890 587.4 890 890 C596.3 890 302.6 890 0 890 C0 596.3 0 302.6 0 0 Z " fill="#FEBA08" transform="translate(1069,1069)"/>
<path d="M0 0 C293.7 0 587.4 0 890 0 C890 293.7 890 587.4 890 890 C596.3 890 302.6 890 0 890 C0 596.3 0 302.6 0 0 Z " fill="#05A6F0" transform="translate(89,1069)"/>
<path d="M0 0 C293.7 0 587.4 0 890 0 C890 293.7 890 587.4 890 890 C596.3 890 302.6 890 0 890 C0 596.3 0 302.6 0 0 Z " fill="#81BC06" transform="translate(1069,89)"/>
<path d="M0 0 C293.7 0 587.4 0 890 0 C890 293.7 890 587.4 890 890 C596.3 890 302.6 890 0 890 C0 596.3 0 302.6 0 0 Z " fill="#F35325" transform="translate(89,89)"/>
</svg>
